<svg width="32" height="32" viewBox="0 0 32 32" fill="none" xmlns="http://www.w3.org/2000/svg">
<g id="pixelarticons:heart">
<path id="Vector" d="M12 2.66667H6.66671V5.33334H4.00004V8.00001H1.33337V16H4.00004V18.6667H6.66671V21.3333H9.33337V24H12V26.6667H14.6667V29.3333H17.3334V26.6667H20V24H22.6667V21.3333H25.3334V18.6667H28V16H30.6667V8.00001H28V5.33334H25.3334V2.66667H20V5.33334H17.3334V8.00001H14.6667V5.33334H12V2.66667ZM12 5.33334V8.00001H14.6667V10.6667H17.3334V8.00001H20V5.33334H25.3334V8.00001H28V16H25.3334V18.6667H22.6667V21.3333H20V24H17.3334V26.6667H14.6667V24H12V21.3333H9.33337V18.6667H6.66671V16H4.00004V8.00001H6.66671V5.33334H12Z" fill="#00FFB3"/>
</g>
</svg>
